<svg width="200" height="140" viewBox="0 0 200 140" fill="none" xmlns="http://www.w3.org/2000/svg">
<path d="M175.545 140H155.821C142.869 140 132.334 132.111 132.334 122.415V119.094C132.334 113.096 125.816 108.218 117.807 108.218H81.22C73.2109 108.218 66.6946 113.097 66.6946 119.094V122.415C66.6946 132.112 56.1585 140 43.2067 140H23.4862C10.5361 140 0 132.11 0 122.414V58.7582C0 49.0615 10.5361 41.1745 23.4862 41.1745H175.545C188.497 41.1745 199.032 49.0627 199.032 58.7582V122.414C199.033 132.11 188.497 140 175.545 140ZM81.2204 101.508H117.806C130.757 101.508 141.294 109.397 141.294 119.093V122.414C141.294 128.412 147.81 133.29 155.819 133.29H175.543C183.553 133.29 190.068 128.41 190.068 122.414V58.7582C190.068 52.7607 183.553 47.8832 175.543 47.8832H23.4862C15.4771 47.8832 8.96071 52.7605 8.96071 58.7582V122.414C8.96071 128.412 15.4771 133.29 23.4862 133.29H43.2054C51.2162 133.29 57.7325 128.41 57.7325 122.414V119.094C57.7342 109.397 68.2702 101.508 81.2204 101.508Z" fill="url(#paint0_linear_1325_9)"/>
<path d="M50.2376 93.6895C37.8107 93.6895 27.7014 86.1196 27.7014 76.8172C27.7014 67.5147 37.8107 59.9445 50.2376 59.9445C62.6645 59.9445 72.7738 67.5147 72.7738 76.8172C72.7742 86.1196 62.6645 93.6895 50.2376 93.6895ZM50.2376 66.6532C42.7518 66.6532 36.6621 71.2122 36.6621 76.8172C36.6621 82.4218 42.7518 86.9808 50.2376 86.9808C57.7234 86.9808 63.8131 82.4213 63.8131 76.8172C63.8131 71.2122 57.7234 66.6532 50.2376 66.6532Z" fill="url(#paint1_linear_1325_9)"/>
<path d="M150.265 73.912C147.79 73.912 145.784 72.4107 145.784 70.5582V64.0102C145.784 62.1573 147.79 60.6557 150.265 60.6557C152.74 60.6557 154.745 62.1573 154.745 64.0102V70.5582C154.745 72.4107 152.74 73.912 150.265 73.912Z" fill="url(#paint2_linear_1325_9)"/>
<path d="M150.265 92.9786C147.79 92.9786 145.784 91.4772 145.784 89.6241V83.0765C145.784 81.2234 147.79 79.722 150.265 79.722C152.74 79.722 154.745 81.2234 154.745 83.0765V89.6241C154.745 91.4772 152.74 92.9786 150.265 92.9786Z" fill="url(#paint3_linear_1325_9)"/>
<path d="M142.431 80.1712H133.684C131.21 80.1712 129.204 78.6699 129.204 76.8175C129.204 74.9643 131.21 73.463 133.684 73.463H142.431C144.906 73.463 146.912 74.9643 146.912 76.8175C146.912 78.6699 144.904 80.1712 142.431 80.1712Z" fill="url(#paint4_linear_1325_9)"/>
<path d="M166.847 80.1712H158.1C155.626 80.1712 153.62 78.6699 153.62 76.8175C153.62 74.9643 155.626 73.463 158.1 73.463H166.847C169.322 73.463 171.328 74.9643 171.328 76.8175C171.328 78.6699 169.321 80.1712 166.847 80.1712Z" fill="url(#paint5_linear_1325_9)"/>
<path d="M99.5148 47.8834C97.0399 47.8834 95.0343 46.3819 95.0343 44.529V3.35449C95.0343 1.50157 97.0399 0 99.5148 0C101.99 0 103.995 1.50157 103.995 3.35449V44.5287C103.995 46.3804 101.989 47.8834 99.5148 47.8834Z" fill="url(#paint6_linear_1325_9)"/>
<defs>
<linearGradient id="paint0_linear_1325_9" x1="99.5158" y1="41.1745" x2="99.5158" y2="140" gradientUnits="userSpaceOnUse">
<stop stop-color="#B6A100"/>
<stop offset="1" stop-color="#FFFF00"/>
</linearGradient>
<linearGradient id="paint1_linear_1325_9" x1="50.2376" y1="59.9445" x2="50.2376" y2="93.6895" gradientUnits="userSpaceOnUse">
<stop stop-color="#B6A100"/>
<stop offset="1" stop-color="#FFFF00"/>
</linearGradient>
<linearGradient id="paint2_linear_1325_9" x1="150.265" y1="60.6557" x2="150.265" y2="73.912" gradientUnits="userSpaceOnUse">
<stop stop-color="#B6A100"/>
<stop offset="1" stop-color="#FFFF00"/>
</linearGradient>
<linearGradient id="paint3_linear_1325_9" x1="150.265" y1="79.722" x2="150.265" y2="92.9786" gradientUnits="userSpaceOnUse">
<stop stop-color="#B6A100"/>
<stop offset="1" stop-color="#FFFF00"/>
</linearGradient>
<linearGradient id="paint4_linear_1325_9" x1="138.058" y1="73.463" x2="138.058" y2="80.1712" gradientUnits="userSpaceOnUse">
<stop stop-color="#B6A100"/>
<stop offset="1" stop-color="#FFFF00"/>
</linearGradient>
<linearGradient id="paint5_linear_1325_9" x1="162.474" y1="73.463" x2="162.474" y2="80.1712" gradientUnits="userSpaceOnUse">
<stop stop-color="#B6A100"/>
<stop offset="1" stop-color="#FFFF00"/>
</linearGradient>
<linearGradient id="paint6_linear_1325_9" x1="99.5148" y1="0" x2="99.5148" y2="47.8834" gradientUnits="userSpaceOnUse">
<stop stop-color="#B6A100"/>
<stop offset="1" stop-color="#FFFF00"/>
</linearGradient>
</defs>
</svg>
