<svg width="300" height="300" viewBox="0 0 300 300" fill="none" xmlns="http://www.w3.org/2000/svg">
<path fill-rule="evenodd" clip-rule="evenodd" d="M275 125H262.5V100H125V262.5H187.5V282.713C187.5 289.263 189.012 295.938 193.775 300H131.25C126.275 300 121.513 298.025 117.988 294.513C114.475 290.988 112.5 286.225 112.5 281.25V93.75C112.5 88.775 114.475 84.0125 117.988 80.4875C121.513 76.975 126.275 75 131.25 75H256.25C261.225 75 265.988 76.975 269.513 80.4875C273.025 84.0125 275 88.775 275 93.75V125ZM300 153.125C300 144.5 293 137.5 284.375 137.5H215.625C207 137.5 200 144.5 200 153.125V284.375C200 293 207 300 215.625 300H284.375C293 300 300 293 300 284.375V153.125ZM107.413 300H25L57.4875 262.5H100V285.05C100 292.288 104.213 298.675 107.413 300ZM250 287.5C243.088 287.5 237.5 281.9 237.5 275C237.5 268.1 243.088 262.5 250 262.5C256.9 262.5 262.488 268.1 262.488 275C262.488 281.9 256.9 287.5 250 287.5ZM287.5 250V174.7H212.5V250H287.5ZM262.5 62.5H237.5V25H25V212.5H100V237.5H0V0H262.5V62.5ZM256.25 150H243.75C240.3 150 237.5 152.8 237.5 156.25C237.5 159.7 240.3 162.5 243.75 162.5H256.25C259.688 162.5 262.5 159.7 262.5 156.25C262.5 152.8 259.688 150 256.25 150Z" fill="#4BCB38"/>
</svg>
