<svg width="124" height="140" viewBox="0 0 124 140" fill="none" xmlns="http://www.w3.org/2000/svg">
<path fill-rule="evenodd" clip-rule="evenodd" d="M108.361 140H15.4802C6.93513 140 0 134.773 0 128.333V11.6667C0 5.22667 6.93513 0 15.4802 0H108.361C116.907 0 123.842 5.22667 123.842 11.6667V128.333C123.842 134.773 116.907 140 108.361 140ZM116.102 110.349H7.7401V128.333C7.7401 131.553 11.2154 134.167 15.4802 134.167H108.361C112.634 134.167 116.102 131.553 116.102 128.333V110.349ZM61.9208 127.849C57.6406 127.849 54.1807 125.236 54.1807 122.016C54.1807 118.796 57.6406 116.183 61.9208 116.183C66.1934 116.183 69.6532 118.796 69.6532 122.016C69.6532 125.236 66.1934 127.849 61.9208 127.849ZM116.102 28.6825H7.7401V104.516H116.102V28.6825ZM108.361 5.83333H15.4802C11.2154 5.83333 7.7401 8.4525 7.7401 11.6667V22.8492H116.102V11.6667C116.102 8.4525 112.634 5.83333 108.361 5.83333ZM73.531 17.0158H50.3107C48.1744 17.0158 46.4406 15.7092 46.4406 14.0992C46.4406 12.4892 48.1744 11.1825 50.3107 11.1825H73.531C75.6673 11.1825 77.401 12.4892 77.401 14.0992C77.401 15.7092 75.6673 17.0158 73.531 17.0158Z" fill="url(#paint0_linear_1325_3)"/>
<defs>
<linearGradient id="paint0_linear_1325_3" x1="61.9208" y1="0" x2="61.9208" y2="140" gradientUnits="userSpaceOnUse">
<stop stop-color="#B6A100"/>
<stop offset="1" stop-color="#FFFF00"/>
</linearGradient>
</defs>
</svg>
