<svg width="300" height="300" viewBox="0 0 300 300" fill="none" xmlns="http://www.w3.org/2000/svg">
<g clip-path="url(#clip0_550_12)">
<path fill-rule="evenodd" clip-rule="evenodd" d="M217.775 254.925C215.563 249.737 215.037 246.2 214.162 240.95C221.975 232.237 229.025 223.05 235.313 213.4C242.563 210.95 251.2 207.925 263.825 201.45C253.888 223.4 237.825 241.937 217.775 254.925V254.925ZM115.513 270.075C128.5 263.1 139.137 255.163 150.9 246.338C163.55 249.5 176.887 251.275 190.825 251.875L190.838 251.962C191.875 257.4 193.4 262 195.362 266.375C170.525 276.087 143.088 278 115.513 270.075ZM25.0125 149.838L40.925 165.05C38.5 178.5 37.825 190.912 38 205.225C29.7625 188.55 25 169.85 25 150L25.0125 149.838V149.838ZM167.15 26.3125L157.675 48.025C130.938 55.025 115.375 62.0875 92.5 74.3625L56.7125 67.0375C83.3125 37.175 123.425 20.2875 167.15 26.3125ZM144.6 173.425C131.062 164.35 120.338 155.125 101.275 139.338L108.1 94.6375C126.175 84.0375 140.175 79.15 164.062 71.525C176.55 80.1125 188.863 89.375 200.738 99.225L200.712 99.5125C198.987 121.25 195.462 137.838 190.15 155.7C175.2 162.25 160.025 168.175 144.6 173.425V173.425ZM85.125 256.687C78.1875 252.45 71.725 247.588 65.7625 242.138C62.5625 218.125 61.25 193.512 65.725 168.825L65.7375 168.775L87.1875 159.462C102.325 173.538 116.512 184.513 133.138 196.063L133.925 227.625C117.387 240.7 104.312 249.35 85.125 256.687V256.687ZM273.975 165.3C261.475 174.325 251.775 180.612 236.162 186.337L214.488 161.25C220.125 143.137 223.712 123.75 225.312 102.163L256.55 84.9C270.888 108.3 277.562 135.725 273.975 165.3V165.3ZM150 0C67.2125 0 0 67.2125 0 150C0 232.788 67.2125 300 150 300C232.788 300 300 232.788 300 150C300 67.2125 232.788 0 150 0Z" fill="#4BCB38"/>
</g>
<defs>
<clipPath id="clip0_550_12">
<rect width="300" height="300" fill="white"/>
</clipPath>
</defs>
</svg>
