<svg width="24" height="24" viewBox="0 0 24 24" fill="none" xmlns="http://www.w3.org/2000/svg">
<path d="M22 1V3H20V1H18V5H6V1H4V3H2V1H0V23H2V21H4V23H6V19H18V23H20V21H22V23H24V1H22ZM4 19H2V17H4V19ZM4 15H2V13H4V15ZM4 11H2V9H4V11ZM4 7H2V5H4V7ZM18 16H6V8H18V16ZM22 19H20V17H22V19ZM22 15H20V13H22V15ZM22 11H20V9H22V11ZM22 7H20V5H22V7Z" fill="url(#paint0_linear_663_27)"/>
<defs>
<linearGradient id="paint0_linear_663_27" x1="12" y1="1" x2="12" y2="23" gradientUnits="userSpaceOnUse">
<stop stop-color="#B6A100"/>
<stop offset="1" stop-color="#FFFF00"/>
</linearGradient>
</defs>
</svg>
