<svg width="24" height="24" viewBox="0 0 24 24" fill="none" xmlns="http://www.w3.org/2000/svg">
<g clip-path="url(#clip0_663_31)">
<path d="M24 2V24H0V2H3V3C3 4.103 3.897 5 5 5C6.103 5 7 4.103 7 3V2H17V3C17 4.103 17.897 5 19 5C20.103 5 21 4.103 21 3V2H24ZM22 8H2V22H22V8ZM20 1C20 0.448 19.553 0 19 0C18.447 0 18 0.448 18 1V3C18 3.552 18.447 4 19 4C19.553 4 20 3.552 20 3V1ZM6 3C6 3.552 5.553 4 5 4C4.447 4 4 3.552 4 3V1C4 0.448 4.447 0 5 0C5.553 0 6 0.448 6 1V3ZM7 14.729L7.855 13.938C8.855 14.422 9.49 14.79 10.615 15.592C12.728 13.193 14.126 11.976 16.721 10.361L17 11.001C14.859 12.87 13.291 14.95 11.033 19C9.64 17.36 8.711 16.314 7 14.729Z" fill="#29A217"/>
</g>
<defs>
<clipPath id="clip0_663_31">
<rect width="24" height="24" fill="white"/>
</clipPath>
</defs>
</svg>
