<svg width="20" height="20" viewBox="0 0 20 20" fill="none" xmlns="http://www.w3.org/2000/svg">
<path d="M20 17.4L14.6663 12.105C15.4471 10.8842 15.8979 9.43833 15.8979 7.88917C15.8987 3.54 12.3323 0 7.94895 0C3.56561 0 0 3.54 0 7.89C0 12.2408 3.56561 15.7808 7.94895 15.7808C9.4333 15.7808 10.8211 15.375 12.0116 14.67L17.3814 20L20 17.4ZM2.96197 7.89C2.96197 5.1625 5.1994 2.94167 7.94811 2.94167C10.6977 2.94167 12.9351 5.16167 12.9351 7.89C12.9351 10.6192 10.6977 12.8392 7.94811 12.8392C5.1994 12.8392 2.96197 10.6192 2.96197 7.89Z" fill="url(#paint0_linear_661_18)"/>
<defs>
<linearGradient id="paint0_linear_661_18" x1="10" y1="0" x2="10" y2="20" gradientUnits="userSpaceOnUse">
<stop stop-color="#B6A100"/>
<stop offset="1" stop-color="#FFFF00"/>
</linearGradient>
</defs>
</svg>
