<svg width="32" height="32" viewBox="0 0 32 32" fill="none" xmlns="http://www.w3.org/2000/svg">
<path d="M6 5C3.80267 5 2 6.80267 2 9V24C2 25.645 3.35503 27 5 27H10V17.0312L16 21.5527L22 17.0312V27H27C28.645 27 30 25.645 30 24V9C30 6.80267 28.1973 5 26 5C25.1031 5 24.2631 5.29766 23.5918 5.79883L23.5898 5.80078L16 11.5176L8.41211 5.80078V5.80273C7.73821 5.29396 6.89531 5 6 5ZM6 7C6.46069 7 6.87693 7.14922 7.20703 7.39844L8 7.99609V13.0195L4 10.0059V9C4 7.88333 4.88333 7 6 7ZM26 7C27.1167 7 28 7.88333 28 9V10.0039L24 13.0176V7.99414L24.7891 7.40039C25.1197 7.15356 25.5509 7 26 7ZM10 9.50195L16 14.0215L22 9.50195V14.5254L16 19.0469L10 14.5254V9.50195ZM4 12.5078L8 15.5234V25H5C4.43497 25 4 24.565 4 24V12.5078ZM28 12.5078V24C28 24.565 27.565 25 27 25H24V15.5234L28 12.5078Z" fill="#4BCB38"/>
</svg>
