<svg width="24" height="24" viewBox="0 0 24 24" fill="none" xmlns="http://www.w3.org/2000/svg">
<path d="M2.01904 11.993C2.01904 17.511 6.49904 21.991 12.017 21.991C17.534 21.991 22.014 17.511 22.014 11.993C22.014 6.475 17.534 1.995 12.017 1.995C6.49904 1.995 2.01904 6.475 2.01904 11.993ZM3.51904 11.993C3.51904 7.303 7.32704 3.49499 12.017 3.49499C16.707 3.49499 20.514 7.303 20.514 11.993C20.514 16.683 16.707 20.491 12.017 20.491C7.32704 20.491 3.51904 16.683 3.51904 11.993ZM8.23404 10.465C8.23404 10.465 9.73904 8.963 11.493 7.21C11.64 7.064 11.831 6.991 12.023 6.991C12.215 6.991 12.407 7.064 12.553 7.21C14.307 8.963 15.812 10.464 15.812 10.464C15.957 10.609 16.029 10.8 16.028 10.991C16.028 11.182 15.954 11.374 15.808 11.521C15.515 11.814 15.042 11.815 14.751 11.525L12.773 9.547V16.241C12.773 16.654 12.437 16.991 12.023 16.991C11.609 16.991 11.273 16.654 11.273 16.241V9.547L9.29504 11.526C9.00504 11.815 8.53304 11.812 8.24004 11.519C8.09304 11.373 8.02004 11.181 8.01904 10.989C8.01804 10.799 8.09004 10.609 8.23404 10.465V10.465Z" fill="#4BCB38"/>
</svg>
